<svg width="25" height="22" viewBox="0 0 25 22" fill="none" xmlns="http://www.w3.org/2000/svg">
<path d="M0.170898 1H2.6217C3.06003 1 3.44727 1.28546 3.57694 1.70417L4.28795 4M7.59139 14.6667L4.28795 4M7.59139 14.6667L7.20332 16.4546C7.06805 17.0778 7.54284 17.6667 8.18057 17.6667H9.87044M7.59139 14.6667L12.4751 14.3095M4.28795 4L22.8526 4.14724C23.5222 4.15255 23.9975 4.80173 23.8003 5.4417L21.4669 13.0137C21.3456 13.4074 20.9952 13.6865 20.5842 13.7165L12.4751 14.3095M18.6611 17.6667H9.87044M9.87044 17.6667L12.4751 14.3095" stroke="#333333"/>
<ellipse cx="6.51816" cy="19.3327" rx="1.60703" ry="1.66667" stroke="#333333"/>
<ellipse cx="18.731" cy="19.3327" rx="1.60703" ry="1.66667" stroke="#333333"/>
</svg>
