<svg width="24" height="24" viewBox="0 0 24 24" fill="none" xmlns="http://www.w3.org/2000/svg">
<mask id="mask0" mask-type="alpha" maskUnits="userSpaceOnUse" x="3" y="1" width="20" height="21">
<path fill-rule="evenodd" clip-rule="evenodd" d="M22 3H21V2C21 1.448 20.553 1 20 1C19.447 1 19 1.448 19 2V3H18C17.447 3 17 3.448 17 4C17 4.552 17.447 5 18 5H19V6C19 6.552 19.447 7 20 7C20.553 7 21 6.552 21 6V5H22C22.553 5 23 4.552 23 4C23 3.448 22.553 3 22 3ZM20 8.83349C19.448 8.83349 19 9.28149 19 9.83349V18.3995C19 18.7305 18.731 19.0005 18.4 19.0005H5.6C5.269 19.0005 5 18.7305 5 18.3995V5.60049C5 5.26949 5.269 5.00049 5.6 5.00049H14.167C14.719 5.00049 15.167 4.55249 15.167 4.00049C15.167 3.44749 14.719 3.00049 14.167 3.00049H5.6C4.167 3.00049 3 4.16649 3 5.60049V18.3995C3 19.8335 4.167 21.0005 5.6 21.0005H18.4C19.833 21.0005 21 19.8335 21 18.3995V9.83349C21 9.28149 20.552 8.83349 20 8.83349ZM7.948 7H16.051C16.573 7 17 7.427 17 7.949V8.051C17 8.573 16.573 9 16.051 9H7.948C7.426 9 7 8.573 7 8.051V7.949C7 7.427 7.426 7 7.948 7ZM16.051 11H7.948C7.426 11 7 11.427 7 11.949V12.051C7 12.573 7.426 13 7.948 13H16.051C16.573 13 17 12.573 17 12.051V11.949C17 11.427 16.573 11 16.051 11ZM7.948 15H16.051C16.573 15 17 15.427 17 15.949V16.051C17 16.573 16.573 17 16.051 17H7.948C7.426 17 7 16.573 7 16.051V15.949C7 15.427 7.426 15 7.948 15Z" fill="white"/>
</mask>
<g mask="url(#mask0)">
<rect width="24" height="24" fill="#999999"/>
</g>
</svg>
