<svg width="15" height="14" viewBox="0 0 15 14" fill="none" xmlns="http://www.w3.org/2000/svg">
<path d="M2.14614 11.9497C-0.59038 9.21608 -0.59038 4.78392 2.14614 2.05025C4.88266 -0.683418 9.31944 -0.683418 12.056 2.05025C14.3119 4.30385 14.7081 7.71177 13.2445 10.3708L14.1083 14L10.4753 13.1371C7.81348 14.5991 4.40206 14.2033 2.14614 11.9497Z" fill="#BBBBBB"/>
<path d="M7.9008 11H6.19981V4.66016H7.9008V11ZM6.1001 3.01953C6.1001 2.76562 6.18417 2.55664 6.35231 2.39258C6.52437 2.22852 6.75703 2.14648 7.05031 2.14648C7.33967 2.14648 7.57038 2.22852 7.74243 2.39258C7.91449 2.55664 8.00051 2.76562 8.00051 3.01953C8.00051 3.27734 7.91253 3.48828 7.73657 3.65234C7.56451 3.81641 7.33576 3.89844 7.05031 3.89844C6.76485 3.89844 6.53414 3.81641 6.35818 3.65234C6.18612 3.48828 6.1001 3.27734 6.1001 3.01953Z" fill="white"/>
<rect x="6.46191" y="9" width="2.00209" height="2" fill="white"/>
</svg>
