<svg width="19" height="15" viewBox="0 0 19 15" fill="none" xmlns="http://www.w3.org/2000/svg">
<path d="M17.9895 8.26358L17.1837 7.07254C16.9449 4.98824 16.3549 3.44581 15.388 2.37061C14.2561 1.11186 12.6384 0.5 10.4425 0.5C10.1331 0.5 9.80691 0.512478 9.47309 0.537168C5.73109 0.813537 3.72753 5.1674 2.93444 7.43052C2.89488 7.44761 2.85526 7.46496 2.81559 7.48254C0.997618 8.28943 0.114794 9.18779 0.116794 10.2287C0.117559 10.6215 0.346059 11.041 0.857588 11.589C1.22921 11.987 1.73635 12.431 2.28547 12.839C2.93162 13.3192 4.58156 14.4419 5.94438 14.4964C6.00521 14.4988 6.07047 14.5 6.13832 14.5C6.13841 14.5 6.13826 14.5 6.13838 14.5C8.28385 14.5 15.0749 13.2218 17.9811 9.10751C18.1589 8.85592 18.1623 8.51882 17.9895 8.26358ZM14.3329 9.12887C14.16 9.24641 13.9828 9.35762 13.8031 9.46443C13.4113 9.6973 13.007 9.90821 12.5941 10.1001C11.8083 10.4651 10.9864 10.7643 10.1422 10.9577C9.37403 11.1338 8.55629 11.2419 7.77323 11.1057C7.02003 10.9747 6.27897 10.7151 5.60623 10.3487C4.93673 9.98407 4.25047 9.52578 3.76423 8.92464C4.06797 9.05956 4.37423 9.18764 4.6835 9.3091C4.88215 8.61794 5.11218 7.93296 5.38879 7.26949C5.65788 6.62408 5.97297 6.00364 6.43118 5.4739C6.9707 4.85003 7.63976 4.3292 8.34509 3.91082C8.93797 3.55916 9.57247 3.28285 10.2459 3.13629C9.97885 3.23606 9.7207 3.35362 9.47191 3.49397C8.7292 3.91307 8.06123 4.47752 7.49753 5.11945C7.24988 5.40146 6.9885 5.71102 6.81521 6.04722C6.62353 6.4192 6.4997 6.81875 6.39797 7.22424C6.19768 8.02937 6.07979 8.85744 6.00276 9.6833C5.99471 9.7695 5.99785 9.76183 6.08226 9.78503C6.13573 9.79974 6.18918 9.81445 6.24265 9.82909C6.33929 9.85782 6.43729 9.88159 6.53523 9.90536C6.73835 9.95465 6.94253 9.99758 7.14723 10.04C8.37718 10.3058 10.0149 10.0007 11.0288 9.773C12.0534 9.54292 13.0703 9.27888 14.0927 9.03906C14.0921 9.03912 14.1011 9.03698 14.125 9.03139C14.2772 8.99654 14.2429 9.00453 14.1868 9.01752C14.3298 8.98501 14.4731 8.95325 14.6169 8.92464C14.6169 8.96817 14.3644 9.10745 14.3329 9.12887Z" fill="#C7CAD1"/>
</svg>
