<svg width="14" height="20" viewBox="0 0 14 20" fill="none" xmlns="http://www.w3.org/2000/svg">
<path d="M6.99991 13.8458C8.06947 13.8458 8.98479 13.4692 9.74631 12.7163C10.5077 11.9635 10.8885 11.0577 10.8885 9.99998V3.84626C10.8885 2.78851 10.508 1.88316 9.74631 1.1299C8.98479 0.376817 8.06947 0 6.99991 0C5.93047 0 5.01503 0.376817 4.25346 1.1299C3.49185 1.88303 3.11111 2.78851 3.11111 3.84626V9.99998C3.11111 11.0577 3.49202 11.9635 4.25346 12.7163C5.0149 13.4692 5.93047 13.8458 6.99991 13.8458Z" fill="#BBBBBB"/>
<path d="M13.7686 9.45926C13.6152 9.30699 13.4325 9.23083 13.2218 9.23083C13.0114 9.23083 12.8291 9.30699 12.675 9.45926C12.5212 9.61148 12.4442 9.79175 12.4442 10C12.4442 11.4824 11.9114 12.7504 10.846 13.804C9.78097 14.8577 8.49879 15.3846 6.99988 15.3846C5.50101 15.3846 4.21896 14.8577 3.15352 13.804C2.08821 12.7507 1.5556 11.4825 1.5556 10C1.5556 9.79175 1.4786 9.61148 1.32473 9.45926C1.17077 9.30699 0.988678 9.23083 0.777897 9.23083C0.567117 9.23083 0.384812 9.30699 0.230941 9.45926C0.0769418 9.61148 -1.52588e-05 9.79175 -1.52588e-05 10C-1.52588e-05 11.7708 0.597593 13.3114 1.79247 14.6213C2.98739 15.9313 4.46392 16.6825 6.22209 16.8747V19.2222C6.22209 19.6518 6.57036 20 6.99996 20C7.42957 20 7.77783 19.6518 7.77783 19.2222V16.8747C9.53571 16.6825 11.0121 15.9313 12.2072 14.6213C13.4022 13.3114 14 11.7708 14 10C14 9.79179 13.9228 9.61165 13.7686 9.45926Z" fill="#BBBBBB"/>
</svg>
