<svg width="13" height="15" viewBox="0 0 13 15" fill="none" xmlns="http://www.w3.org/2000/svg">
<path d="M8.04808 9.92188C7.92101 9.92188 7.79395 10.0372 7.79395 10.4234C7.79395 10.8095 7.92101 10.9248 8.04808 10.9248C8.17515 10.9248 8.30223 10.8095 8.30223 10.4234C8.30223 10.0371 8.17515 9.92188 8.04808 9.92188Z" fill="#B12200"/>
<path d="M5.08886 8.01953C4.96179 8.01953 4.83472 8.13483 4.83472 8.52101C4.83472 8.9072 4.96179 9.02249 5.08886 9.02249C5.21593 9.02249 5.343 8.9072 5.343 8.52101C5.343 8.13483 5.21593 8.01953 5.08886 8.01953Z" fill="#B12200"/>
<path d="M10.9607 5.31593C9.68889 3.91275 8.9331 2.67753 8.52297 1.88837C8.07879 1.0336 7.93323 0.503561 7.93211 0.499343L7.7999 0L7.32769 0.210405C7.2725 0.234981 5.96782 0.829347 5.23678 2.28988C4.8698 3.02309 4.79641 3.83943 4.79949 4.3951C4.80128 4.71849 4.57191 4.99928 4.25415 5.06276C4.03135 5.10722 3.80217 5.03804 3.64136 4.8774L2.76177 3.99872L2.45919 4.41552C2.42778 4.45879 1.68833 5.47754 1.55371 5.68109C0.896321 6.67517 0.55354 7.83318 0.562424 9.02991C0.574329 10.6282 1.20353 12.1257 2.33413 13.2464C3.46466 14.3671 4.96847 14.9843 6.56855 14.9843C9.8804 14.9843 12.5748 12.2927 12.5748 8.98433C12.5748 7.78479 11.9865 6.44772 10.9607 5.31593ZM8.04855 11.5474C7.43694 11.5474 6.97532 11.1439 6.97532 10.4234C6.97532 9.70869 7.43691 9.29942 8.04855 9.29942C8.6602 9.29942 9.12179 9.70866 9.12179 10.4234C9.12179 11.1439 8.66017 11.5474 8.04855 11.5474ZM7.46002 7.45493H8.43514L5.67706 11.4897H4.70193L7.46002 7.45493ZM4.01531 8.52128C4.01531 7.80655 4.47691 7.39731 5.08855 7.39731C5.70019 7.39731 6.16179 7.80655 6.16179 8.52128C6.16179 9.24178 5.70019 9.64527 5.08855 9.64527C4.47691 9.64527 4.01531 9.24178 4.01531 8.52128Z" fill="#B12200"/>
</svg>
