<svg width="20" height="16" viewBox="0 0 20 16" fill="none" xmlns="http://www.w3.org/2000/svg">
<path fill-rule="evenodd" clip-rule="evenodd" d="M5.77765 5.40985C5.68762 5.44869 5.60563 5.50089 5.53161 5.56489C5.6509 5.54493 5.77039 5.52563 5.88971 5.50494C5.98923 5.33687 6.09096 5.17037 6.19498 5.00527L6.24132 5.00515C6.11232 5.16496 5.97381 5.31549 5.82548 5.45576C5.87373 5.50161 5.92168 5.54644 5.96951 5.59232C6.08624 5.39418 6.20615 5.19829 6.32927 5.0049L6.60137 5.00418C6.36013 5.40253 6.11485 5.79487 5.85803 6.18203C5.81347 6.26451 5.74766 6.24134 5.65993 6.1112C5.98872 5.75216 6.29624 5.37308 6.6145 5.00415L6.76562 5.00376C6.31213 5.72265 5.76074 6.37669 5.27274 7.07099L5.27355 7.42939C5.31604 7.43983 5.36181 7.43078 5.39681 7.39146C5.72028 7.02417 6.03869 6.65288 6.35709 6.28051C6.56257 6.04021 6.77456 5.80805 6.99332 5.58071C7.36453 5.44004 7.43619 5.28258 7.20802 5.10652C6.60604 5.9009 5.94905 6.61759 5.41527 7.46934C5.32307 7.61539 5.52337 7.76629 5.63501 7.65093C6.08573 7.18286 6.51828 6.69758 6.94965 6.20989C7.17111 5.95764 7.39689 5.70873 7.62549 5.46396C8.08809 5.05701 8.09276 4.99728 7.64096 5.28609C6.95114 6.2359 6.01765 6.94024 5.33627 7.90596C5.23732 8.04614 5.44605 8.20148 5.55662 8.08764C5.92455 7.70918 6.28524 7.32486 6.64394 6.93564C6.87929 6.67998 7.11689 6.42735 7.35759 6.1765C7.7586 6.01517 7.82956 5.82418 7.57088 5.60321C6.77975 6.47024 5.99275 7.32883 5.2755 8.26469L5.2766 8.75021C5.74693 8.28892 6.20199 7.81453 6.65874 7.33715C6.88801 7.09749 7.12275 6.86384 7.36215 6.63562C8.18629 5.98657 8.31976 5.84777 7.76175 6.22078C6.99026 7.2012 6.06689 8.01276 5.33894 9.03918C5.2414 9.1764 5.4514 9.33954 5.55919 9.21971C6.0771 8.64481 6.59304 8.07038 7.1309 7.51629C7.48563 7.15202 9.23319 5.3037 8.00025 6.90492C7.19938 7.94477 6.16615 8.72548 5.42073 9.82288C5.32237 9.96678 5.52812 10.1124 5.64038 10.0045C6.70251 8.97427 7.72523 7.89964 8.82546 6.91611C7.94272 7.70459 6.71323 9.08109 5.83958 10.2273C5.72735 10.375 5.91076 10.582 6.0376 10.4399C6.54232 9.87151 7.03432 9.29184 7.53566 8.72121C7.83828 8.37581 8.15669 8.05062 8.48035 7.72948C8.61048 7.59927 9.46089 6.46893 8.90151 7.38868C8.04524 8.79516 6.6108 9.73656 5.60308 11.0123C5.48752 11.1581 5.67054 11.3602 5.80148 11.2237C6.33032 10.6723 6.84266 10.1034 7.36335 9.54226C7.67442 9.207 9.3147 7.28924 8.14399 8.86172C7.36622 9.90717 6.42628 10.7228 5.82172 11.9137C5.75692 12.0408 5.89121 12.2026 6.01368 12.1195C7.23692 11.2745 8.00006 9.9333 9.06317 8.8949C9.14963 8.81058 9.21271 8.75318 9.25697 8.71722L9.25618 8.37699C8.17672 9.2236 7.44785 10.4485 6.46041 11.412C5.65667 12.1977 7.1026 10.5032 6.96069 10.6821C7.22361 10.3498 7.51532 10.0411 7.7956 9.7263C8.28237 9.17682 8.70499 8.61196 9.06647 7.96025C9.13427 7.83763 8.99152 7.6646 8.8745 7.75591C8.2636 8.23339 7.70737 8.76379 7.16495 9.33013C6.84446 9.66536 6.53506 10.0143 6.22143 10.3571C5.89518 10.7135 5.84704 11.1419 6.31422 10.6067C7.2953 9.48083 8.45497 8.60419 9.25376 7.33106L9.2523 6.69474C8.07833 7.60798 7.12604 8.75438 6.13964 9.88998C6.19473 9.95546 6.25041 10.0219 6.3055 10.0878C6.49249 9.85635 6.68533 9.63124 6.88484 9.41175C7.18341 9.07289 7.49675 8.74682 7.80235 8.41615C8.33177 7.83978 8.80115 7.23491 9.22219 6.56508C9.31847 6.41183 9.11677 6.28586 9.00184 6.3837C8.37715 6.91653 7.77981 7.47669 7.19184 8.05542C6.95919 8.28767 6.72663 8.5202 6.49468 8.75323C6.37905 8.86931 6.26262 8.98624 6.14628 9.10232C5.67443 9.4733 5.67046 9.54897 6.13298 9.33067C7.03254 8.18581 8.19006 7.35976 8.90379 6.04214C8.97297 5.91421 8.83232 5.75727 8.71182 5.83772C7.5558 6.60957 6.61139 7.61829 5.66987 8.66561C5.9988 8.60458 6.25021 8.42247 6.42499 8.1187C6.72553 7.76979 7.04979 7.44161 7.36414 7.10709C7.77874 6.6631 8.1559 6.19857 8.50607 5.69539C8.59134 5.57386 8.42608 5.41018 8.31489 5.49063C7.23312 6.26586 6.34469 7.25859 5.40714 8.21759C5.55156 8.51366 5.69646 8.43911 5.84177 7.99375C6.04724 7.73927 6.25784 7.48884 6.47383 7.24259C6.99571 6.63431 7.54885 6.05654 8.08769 5.46568C8.21585 5.32534 8.02459 5.12691 7.88928 5.2543C7.38915 5.7247 6.91521 6.21853 6.44553 6.72417C6.20823 6.98427 5.96852 7.24069 5.72684 7.49632C6.0114 7.48734 6.225 7.34833 6.36872 7.07924C6.99422 6.38646 7.65199 5.77669 8.17719 5L7.67858 5.00133C7.13174 5.56298 6.61423 6.15453 6.09009 6.74262C5.47154 7.43794 5.94967 7.13495 6.47681 6.45795C6.85999 5.96529 7.2669 5.49725 7.64611 5.00139L7.18982 5.0026C6.59408 5.55938 6.06629 6.17743 5.52902 6.80462C5.67018 6.73781 5.81099 6.66912 5.95243 6.60156C6.13995 6.35125 6.32682 6.10064 6.51373 5.84958C6.71894 5.57444 6.91102 5.29217 7.09601 5.00287L6.98924 5.00315C7.04436 5.08877 6.94839 5.20004 6.7013 5.33762C6.60871 5.44989 6.51572 5.5637 6.42381 5.67715C6.14529 6.00939 5.86847 6.31411 5.55325 6.60488C5.41358 6.73397 5.24643 6.54436 5.35512 6.39341C5.62786 6.0237 5.88288 5.63998 6.12225 5.24522C6.18798 5.28364 6.25348 5.32205 6.31979 5.36046C6.11691 5.57151 5.91304 5.78243 5.71086 5.99533C5.60029 6.11002 5.39862 5.95755 5.4905 5.81371C5.65456 5.5634 5.81189 5.3084 5.96484 5.04966C6.02251 5.07398 6.08019 5.09872 6.13854 5.1234C5.87134 5.40177 5.62978 5.68629 5.39364 5.99618C5.35627 6.04496 5.31095 6.05567 5.27038 6.04275L5.26953 5.68248C5.43747 5.45349 5.60698 5.22796 5.78137 5.00635L5.84504 5.00617C5.78877 5.06388 5.73345 5.12277 5.67909 5.18292C5.33458 5.41242 5.34471 5.53939 5.70985 5.56256C6.04682 5.3767 6.12135 5.19154 5.93245 5.00596L5.85984 5.00614C5.71477 5.24934 5.56543 5.48976 5.4113 5.72633C5.32107 5.8664 5.5306 6.04003 5.63095 5.90792C5.72735 5.82747 5.8234 5.74853 5.9192 5.66884C6.07662 5.57387 5.93495 5.31479 5.77765 5.40985L5.77765 5.40985ZM9.25722 8.83759C9.0637 9.13239 8.60774 9.70522 8.66159 9.63124C8.40145 9.98523 8.09106 10.299 7.79292 10.6138C7.10239 11.3428 6.35501 12.0013 5.68702 12.7547C5.58163 12.8738 5.72723 13.0979 5.85665 12.9907C6.91608 12.1134 7.71101 10.9584 8.6736 9.97011C9.03678 9.46284 9.06317 9.45903 8.75112 9.96167C8.45882 10.4661 8.03409 10.9023 7.64563 11.3224C7.13019 11.8812 6.57584 12.3989 6.05447 12.9516C6.24742 13.2487 6.41465 13.1885 6.55809 12.7724C6.86389 12.4004 7.17962 12.0411 7.50149 11.6861C7.71827 11.4517 7.94268 11.2281 8.17603 11.014C9.17137 10.0611 7.91688 11.4994 7.8594 11.5739C7.05951 12.6076 6.04057 13.3928 5.28978 14.4746L5.2906 14.8324C5.33252 14.841 5.37787 14.8324 5.41388 14.7987C5.93635 14.3115 6.40016 13.7716 6.86985 13.2266C7.25089 12.7858 8.14477 12.1368 8.30714 11.8458C7.58955 13.1338 6.43134 14.1175 5.59153 15.3135C5.49466 15.4513 5.70379 15.6171 5.81129 15.4951C6.78182 14.3894 7.76334 13.2295 8.6478 12.0758C7.67342 13.3463 6.53476 14.4023 5.75173 15.8363C5.71842 15.8971 5.72939 15.9574 5.76183 16L5.9895 15.9994C6.48615 15.4945 6.92283 14.9438 7.35915 14.3789C7.78129 13.8314 8.40263 13.3254 8.72422 12.708C8.09129 13.9252 6.89892 14.6518 6.30636 15.9214C6.29379 15.9485 6.28827 15.9745 6.28833 15.9986L6.64818 15.9976C7.40507 15.3205 7.94563 14.4518 8.58545 13.6501C8.55141 13.6093 8.51717 13.5693 8.48313 13.5278C8.25565 13.9182 8.00154 14.2878 7.72086 14.6367C7.43419 15.0216 7.17754 15.4098 6.94061 15.8332C6.90964 15.8882 6.92002 15.951 6.95147 15.9969L7.18922 15.9962C7.81373 15.5272 8.25425 14.9011 8.75052 14.2821C9.17632 13.7506 8.90754 13.9821 8.71954 14.3464C8.40415 14.9554 7.92394 15.4728 7.49375 15.9954L7.91533 15.9943C8.19688 15.6926 8.44784 15.3702 8.70317 15.0326C9.03778 14.7861 9.05812 14.6762 8.76273 14.703C8.5372 15.1287 8.32593 15.5489 8.13464 15.9937L8.53534 15.9927C8.78524 15.7263 9.02526 15.4511 9.27184 15.1797L9.27209 15.3001C8.96725 15.6365 8.88951 15.6069 9.2722 15.3485L9.27327 15.8029C9.21498 15.8768 9.16594 15.9396 9.12621 15.9911L8.99063 15.9914C9.10443 15.7288 9.07208 15.8498 8.92434 15.9916L8.6931 15.9922C8.65872 15.9512 8.64727 15.8915 8.6846 15.8285C8.83628 15.5772 8.98199 15.3233 9.12312 15.0657C9.16704 14.9839 9.21574 15.0196 9.27181 15.1744L9.27094 14.7967C8.9787 15.0711 8.71752 15.3621 8.44967 15.6703C8.67152 15.4143 9.01019 14.8437 9.24025 14.4095C9.31916 14.2609 9.13356 14.1077 9.01989 14.2279C8.74507 14.5196 8.50209 14.8232 8.25911 15.1452C8.17465 15.2541 8.09086 15.3621 8.00739 15.471C7.6746 15.646 7.64205 15.802 7.91122 15.9375C8.44739 15.2779 8.93312 14.6308 9.26872 13.8319L9.26799 13.5124C9.22142 13.4798 9.15623 13.4782 9.0972 13.5307C8.50873 14.0537 8.07201 14.716 7.55222 15.3126C6.89107 16.0693 8.06982 14.6458 8.19798 14.4743C8.48105 14.0931 8.71063 13.7073 8.92043 13.2768C8.99299 13.1279 8.81434 12.9702 8.70011 13.0959C8.27918 13.5562 7.91162 14.0497 7.54437 14.5592C7.29883 14.8987 6.0503 16.5675 7.13953 15.0725C7.7952 14.1703 8.62873 13.507 9.15689 12.492C9.22101 12.369 9.08461 12.1956 8.96461 12.2872C7.92394 13.0814 7.18796 14.1704 6.35045 15.1882C5.9964 15.3925 5.95372 15.5195 6.22151 15.5689C6.5189 15.0244 6.92314 14.5497 7.31015 14.0795C7.91134 13.3486 8.55609 12.6665 9.13325 11.9123C9.22745 11.7896 9.10259 11.572 8.96323 11.6773C7.76245 12.5788 6.86578 13.8023 5.89416 14.963C6.21397 14.9235 6.45078 14.7529 6.60632 14.4537C6.88961 14.1077 7.18768 13.7748 7.47778 13.4366C7.96303 12.8703 8.39082 12.2814 8.75768 11.6215C8.8353 11.4836 8.68562 11.356 8.56571 11.4168C7.93408 11.7355 7.45685 12.1672 6.96316 12.6882C6.66203 13.0053 6.38321 13.3497 6.09586 13.6816C5.99958 13.7886 5.90322 13.897 5.80652 14.0033C5.39422 14.357 5.41457 14.4068 5.86788 14.1535C6.85816 12.8392 8.19551 11.9534 8.9138 10.4015C8.97038 10.2781 8.84501 10.1021 8.72183 10.1967C7.58815 11.0624 6.68513 12.1649 5.76721 13.2778C5.64893 13.4226 5.84087 13.6317 5.96562 13.49C7.08766 12.2171 8.45444 11.1602 9.25902 9.61399L9.25817 9.24627C8.50617 10.4519 7.40595 11.345 6.43551 12.3675C5.66896 13.1753 6.52982 11.9805 6.6519 11.8409C6.95511 11.4938 7.24701 11.1368 7.54519 10.7856C8.05824 10.1814 8.5809 9.62993 9.1949 9.1484C9.21614 9.13183 9.23747 9.12342 9.25789 9.12151L9.25722 8.83757L9.25722 8.83759ZM9.27356 15.9257C9.24267 15.9264 9.21096 15.94 9.18288 15.9712L9.16547 15.991L9.2737 15.9907L9.27356 15.9257Z" fill="#0093DD"/>
<path fill-rule="evenodd" clip-rule="evenodd" d="M10.4341 4.01692C10.6173 3.753 10.8001 3.48841 10.9833 3.2246C11.1533 3.14741 11.2527 3.0747 11.2813 3.00637L11.4335 3.00597C11.1372 3.36628 10.742 3.67969 10.3979 3.99693C10.3628 4.02952 10.3179 4.03778 10.2762 4.02964L10.2764 4.11127C10.3377 4.11711 10.4049 4.08954 10.4341 4.01692L10.4341 4.01692ZM10.858 3.00744C10.6518 3.22835 10.4602 3.4519 10.2754 3.69479L10.2754 3.70676C10.417 3.44333 10.6002 3.21802 10.8047 3.00755L10.858 3.00744V3.00744ZM11.4336 3.00597C11.084 3.43421 10.6488 3.79789 10.28 4.2101L10.2766 4.21398L10.2771 4.40149C10.3243 4.4525 10.4075 4.47138 10.4781 4.41196C11.013 3.95722 11.5241 3.47581 12.0442 3.00444H12.0422C11.4618 3.51649 10.8465 4.00863 10.2775 4.55562L10.2784 4.93613C10.293 4.93003 10.3074 4.92108 10.3212 4.90882C10.8663 4.42332 11.4855 3.89208 11.9262 3.32499C11.3962 4.00717 10.751 4.5547 10.2792 5.28815L10.2797 5.48256C10.3222 5.52969 10.3922 5.55167 10.4531 5.51182C11.3293 4.9302 12.0498 4.18127 12.8174 3.46183C13.0802 2.95309 13.0271 2.94376 12.6572 3.43331C12.4368 3.66726 12.2153 3.90011 11.9922 4.13233C11.5357 4.61008 11.1202 5.10766 10.737 5.64713C10.6354 5.79105 10.8436 5.91022 10.957 5.81988C11.8682 5.09443 12.5571 4.13549 13.5094 3.45869C12.4773 4.1918 11.4456 5.41854 10.5239 6.44777C10.4209 6.56165 10.5613 6.77318 10.6934 6.67187C11.7094 5.89071 12.4623 4.83096 13.4891 4.06394C12.4664 4.82768 11.5156 6.04867 10.6834 7.02743C10.5643 7.16761 10.7452 7.3504 10.8812 7.22933C11.8395 6.38188 12.6396 5.35522 13.4493 4.40445C12.4988 5.52014 11.3981 6.49182 10.4469 7.60954C10.348 7.72564 10.4795 7.93262 10.6166 7.83296C11.5188 7.18243 12.2239 6.33328 13.015 5.55273C14.3784 4.20785 12.4867 6.26659 12.2066 6.58823C11.6591 7.2156 11.0844 7.81874 10.5288 8.4378C10.4042 8.57573 10.5892 8.75285 10.7259 8.63886C11.2731 8.18616 11.7601 7.68251 12.2469 7.16404C12.5386 6.85365 12.8375 6.55558 13.1478 6.26415C14.0466 5.42191 13.7676 5.68327 13.5329 6.07394C12.6914 7.47889 11.2498 8.41576 10.351 9.79334C10.262 9.92984 10.462 10.0812 10.5704 9.9658C11.1106 9.39635 11.6491 8.82655 12.2032 8.27103C12.5392 7.93486 12.8935 7.6186 13.2508 7.3066C13.0962 7.44116 14.7323 5.84568 14.0741 6.66996C13.1509 7.82512 12.0303 8.72272 11.302 10.0403C11.2377 10.1562 11.3755 10.3257 11.4937 10.2354C12.4431 9.50888 13.749 8.2121 14.2593 7.46663L14.2587 7.22373C13.3293 7.88862 12.2767 8.85731 11.756 9.79933C12.3798 8.67116 13.4107 7.82696 14.2578 6.85468L14.2562 6.21324C13.7076 6.57694 13.1988 6.97771 12.6967 7.4161C12.339 7.72871 12.0044 8.06997 11.669 8.40694C11.4482 8.63206 11.2291 8.86004 11.0121 9.08933C10.6617 9.23713 10.5941 9.40855 10.8094 9.60506C11.7834 8.11149 13.3484 7.17393 14.1453 5.53396C14.2059 5.4088 14.08 5.26368 13.9532 5.3388C12.7351 6.06572 11.8802 7.21826 10.8463 8.17492C11.0871 8.36004 11.2707 8.2682 11.3967 7.89811C11.7333 7.52937 12.0709 7.16236 12.4048 6.79005C12.9737 6.15658 13.4964 5.48758 13.9847 4.78825C14.0674 4.6698 13.9069 4.51765 13.7933 4.59286C12.7552 5.27616 11.9979 6.25757 11.0952 7.10551C10.8629 7.56977 10.9264 7.56174 11.2851 7.07993C11.6129 6.71714 11.9606 6.37177 12.303 6.02311C12.8736 5.44293 13.4328 4.85716 13.9617 4.23618C14.0606 4.11934 13.9298 3.91523 13.7919 4.01196C12.7166 4.76538 11.9367 5.82234 11.0063 6.74171C11.1836 6.99019 11.3423 6.92514 11.4814 6.54776C11.7911 6.20794 12.1202 5.88475 12.4413 5.55629C12.9779 5.00655 13.4687 4.43088 13.9031 3.79384C13.9861 3.67257 13.8264 3.52983 13.7121 3.59837C12.716 4.19618 12.0062 5.08239 11.186 5.89847C10.9659 6.4014 11.0431 6.39694 11.4155 5.88406C11.6499 5.63242 11.8862 5.38153 12.1229 5.13265C12.7146 4.50831 13.3058 3.88367 13.8805 3.24168C13.9642 3.148 13.899 3.01499 13.7993 3L13.7614 3.00012C13.7449 3.00262 13.7278 3.00843 13.7107 3.01818C12.885 3.48529 12.2715 4.15246 11.6194 4.84082C11.4402 5.02919 11.2534 5.20907 11.0587 5.3794C11.3817 5.21647 11.6497 4.98557 11.8605 4.68775C12.3666 4.11534 12.9114 3.58392 13.4073 3.00101L12.9292 3.00221C12.1625 3.66071 11.4718 4.4055 10.6715 5.02545C11.3655 4.48825 12.0041 3.75226 12.5029 3.00328L12.2286 3.00397C12.054 3.22997 11.8677 3.44398 11.6545 3.64595C11.4313 3.86114 11.2043 4.07255 10.9741 4.28043C10.7974 4.65366 10.6237 4.69719 10.4531 4.41341C10.9474 3.93502 11.4218 3.44627 11.9411 3.00471L11.7679 3.00515C11.4542 3.38208 11.1027 3.71486 10.7657 4.09093C10.5266 3.89952 10.5956 3.73802 10.971 3.60596C11.0831 3.50295 11.1954 3.39889 11.3071 3.29516C11.4123 3.19794 11.5178 3.10136 11.6237 3.00549L11.4336 3.00598V3.00597ZM14.2592 7.46665C13.2217 9.00073 11.7129 10.1715 10.5364 11.5879C10.421 11.7271 10.6048 11.9211 10.7335 11.7897C11.7431 10.7594 12.6617 9.59324 13.5407 8.48973C12.6134 9.65441 11.569 10.692 10.7523 11.9486C10.6634 12.0848 10.8644 12.2386 10.9723 12.1207C11.4162 11.6355 11.8351 11.132 12.2488 10.6193C12.4536 10.3638 12.6616 10.1116 12.8732 9.86243C12.9809 9.74 13.0896 9.61718 13.1973 9.49478C13.5791 9.3296 13.6429 9.14906 13.3909 8.95379C12.3879 10.1335 11.2763 11.206 10.2964 12.4082L10.2972 12.7426C10.3358 12.751 10.3793 12.741 10.419 12.703C10.9225 12.219 11.3656 11.6893 11.8127 11.1515C12.2098 10.6731 12.9741 10.0313 13.2088 9.65576C12.4218 10.915 11.24 11.8929 10.2979 13.0375L10.299 13.4938C11.2473 12.4635 12.1116 11.3599 13.1559 10.4275C13.5343 9.96745 13.5487 9.9833 13.2004 10.4735C12.8725 10.9739 12.4701 11.4376 12.0962 11.9042C11.6993 12.3988 11.3334 12.903 10.9934 13.4401C10.9203 13.5561 11.0708 13.7214 11.1845 13.6353C12.194 12.8718 12.8576 11.7999 13.6795 10.8466C13.454 10.6925 13.3087 10.8031 13.2423 11.1764C12.8989 11.6872 12.4814 12.1578 12.0861 12.6267C11.6804 13.1093 11.2869 13.5948 10.9161 14.1038C10.8274 14.2248 10.9943 14.3649 11.1072 14.2996C12.1808 13.6702 12.8851 12.5919 13.7553 11.7178C13.5224 11.5249 13.3473 11.6154 13.2304 11.9878C12.9124 12.3556 12.5897 12.7196 12.2716 13.087C11.7455 13.6964 11.2687 14.3331 10.8392 15.0164C10.7646 15.1349 10.9145 15.292 11.0302 15.2119C11.9376 14.5832 12.5358 13.6729 13.247 12.8377C13.6128 12.6317 13.6324 12.5077 13.3064 12.4654C12.9858 12.8556 12.6593 13.2414 12.3359 13.6288C11.8044 14.2643 11.2847 14.9076 10.783 15.568C10.6729 15.7127 10.8413 15.891 10.9811 15.7699C11.7489 15.1062 12.5768 14.2631 13.1227 13.4044C12.5563 14.2957 11.8994 15.1181 11.3205 16L11.6459 15.9992C11.6745 15.9541 11.7076 15.9026 11.7459 15.8434C12.3377 14.9286 13.0242 14.084 13.6096 13.1634C13.6835 13.0467 13.5328 12.885 13.418 12.9683C12.5185 13.6224 11.873 14.5216 11.088 15.3039C11.3212 15.4724 11.4855 15.3689 11.5808 14.9944C11.7889 14.734 11.9989 14.4753 12.2112 14.2185C12.7448 13.5688 13.2896 12.9298 13.8231 12.2797C13.9385 12.1386 13.7613 11.9562 13.6249 12.078C12.8136 12.8028 12.2296 13.729 11.4743 14.5088C10.8257 15.1799 12.3294 13.4555 12.4695 13.2889C12.99 12.6679 13.5375 12.0705 14.059 11.4502C14.1765 11.309 13.9969 11.1279 13.8609 11.2483C13.4353 11.6237 13.0585 12.0299 12.6838 12.4585C12.4972 12.6761 12.3078 12.891 12.1151 13.104C11.8862 13.3591 10.8632 14.5982 11.6889 13.5446C12.4803 12.5339 13.3347 11.619 13.9986 10.509C14.0824 10.3693 13.8894 10.2215 13.7788 10.3361C12.958 11.1881 12.1121 12.1965 11.4823 13.1917C12.2248 12.019 13.22 11.0543 13.9177 9.84576C13.9869 9.72722 13.845 9.56794 13.7268 9.65098C13.0735 10.1046 12.5034 10.6244 11.9523 11.203C11.6253 11.5463 11.3197 11.9132 11.0099 12.2724C10.9063 12.3917 10.8026 12.5114 10.699 12.6309C10.3424 12.8003 10.2851 12.9847 10.5291 13.1843C11.5269 11.8767 12.799 10.8415 13.6798 9.43247C13.7556 9.30976 13.6057 9.16328 13.4878 9.23697C12.2744 9.99954 11.4856 11.1796 10.5156 12.2175C10.7462 12.4207 10.9194 12.3326 11.0355 11.9554C11.3441 11.5902 11.6715 11.2425 11.9953 10.8926C12.6354 10.1999 13.2819 9.5168 13.8939 8.79707C14.0113 8.65842 13.8285 8.46893 13.6957 8.5953C12.7454 9.50299 11.9639 10.5558 11.108 11.554C11.4145 11.8844 11.6539 11.6744 11.8261 10.9247C12.0299 10.6715 12.2388 10.4234 12.4525 10.1796C12.9883 9.55435 13.5371 8.94415 14.0514 8.29852C14.1432 8.18248 14.0164 7.96842 13.8816 8.0751C13.2928 8.53447 12.7789 9.05021 12.2812 9.6108C11.9852 9.94493 11.7034 10.2917 11.4152 10.632C11.319 10.7431 11.2227 10.8529 11.1263 10.964C10.7605 11.152 10.729 11.3089 11.0323 11.4313C12.0587 10.196 13.2657 9.15782 14.2603 7.90333L14.2593 7.46663L14.2592 7.46665ZM11.9981 15.9983C12.6251 15.3854 13.1775 14.7002 13.7485 14.0211C13.8646 13.8824 13.6711 13.6809 13.5502 13.8193C12.933 14.5254 12.2946 15.1904 11.8402 15.9987L11.7118 15.999C11.8461 15.825 12.0026 15.6174 12.0517 15.5641C12.3729 15.2141 12.6848 14.8585 12.9889 14.4923C13.1315 14.0852 13.2928 14.0335 13.4726 14.3364C13.2775 14.5534 13.0855 14.7713 12.8943 14.9911C12.6347 15.3034 12.4254 15.6758 12.1717 15.9978L11.9981 15.9983L11.9981 15.9983ZM12.5974 15.9967C12.9412 15.6406 13.2677 15.2665 13.607 14.8996C13.5605 14.8541 13.5143 14.807 13.4679 14.7616C13.2972 14.9851 13.1271 15.2101 12.9581 15.4351C12.8231 15.6252 12.7039 15.8068 12.5963 15.9968L12.2056 15.9977C12.7181 15.4757 13.1901 14.9154 13.7097 14.4004C13.8205 14.29 14.0209 14.4342 13.9292 14.5725C13.6177 15.0434 13.172 15.4961 12.8848 15.996L12.5974 15.9967L12.5974 15.9967ZM13.5316 15.9943C13.6616 15.8531 13.7877 15.6987 13.9202 15.5333C14.3067 15.051 13.9566 15.0505 13.6726 15.4555C13.5434 15.6394 13.4339 15.8146 13.336 15.9949L13.0114 15.9957C13.2648 15.7603 13.6185 15.4565 13.7224 15.3311C13.8631 15.1457 14.0181 14.9731 14.1856 14.813C14.2147 14.783 14.2464 14.7697 14.2769 14.7685L14.2778 15.147C13.8174 15.7317 13.3072 16.4769 14.1874 15.5595C14.2161 15.5296 14.2479 15.5165 14.2787 15.5156L14.2796 15.8828C14.2481 15.9192 14.2169 15.9557 14.1862 15.9927L14.1319 15.9928C14.093 15.6574 13.9995 15.648 13.8522 15.9639C13.8443 15.9738 13.8366 15.9837 13.829 15.9936L13.5316 15.9943L13.5316 15.9943ZM11.0549 3.00689C10.9928 3.06144 10.9308 3.11677 10.8688 3.17293C10.238 3.74339 10.7581 3.35238 11.1849 3.00657L11.0549 3.00689Z" fill="#F8C300"/>
<path fill-rule="evenodd" clip-rule="evenodd" d="M15.5786 0.591633C15.4285 0.70214 15.2849 0.820177 15.1475 0.945029L15.1486 1.41503C15.5016 1.19092 15.8115 0.949312 16.1352 0.669876C16.3938 0.51288 16.5766 0.295142 16.684 0.0180528C16.3221 0.406121 15.8814 0.741364 15.4946 1.10601C15.3532 1.23964 15.5651 1.44191 15.709 1.31473C16.1913 0.888239 16.6635 0.458085 17.116 0.00566996H17.1196C17.0993 0.0266523 17.0776 0.0486169 17.0538 0.0719205C16.8355 0.285375 16.6171 0.499545 16.3987 0.713741C16.1766 0.93047 15.9619 1.15419 15.7549 1.3855C15.7285 1.34625 15.702 1.30675 15.6759 1.26738C16.0589 0.999845 16.4266 0.712878 16.7772 0.406445C16.9368 0.27064 17.0964 0.13671 17.2575 0.00533933L17.6378 0.00438693C16.9955 0.686835 16.2353 1.27711 15.4227 1.76726C15.2676 1.86009 15.1347 1.65804 15.2393 1.5347C15.6929 0.996896 16.194 0.504302 16.691 0.00670897L16.4699 0.0072447C16.4166 0.0479594 16.3516 0.0981683 16.2658 0.164002C16.0543 0.325998 14.806 1.60083 15.7929 0.799634C15.9435 0.67865 15.7277 0.470701 15.5786 0.591625V0.591633ZM17.6403 0.00439553C16.8623 0.844879 15.9491 1.57397 15.1511 2.39451L15.152 2.73041C15.1835 2.73639 15.2184 2.73148 15.2534 2.71118C16.2164 2.15258 16.9401 1.35968 17.737 0.601309C18.606 -0.226586 17.393 0.696012 17.1477 0.945687C16.5375 1.56882 15.9209 2.18317 15.3279 2.82205C15.2166 2.94068 15.3639 3.15247 15.5116 3.05315C16.7189 2.24005 17.7271 1.19012 18.9337 0.375683C17.7517 1.17435 16.5784 2.39821 15.5858 3.42146C15.4514 3.56024 15.6587 3.76134 15.8002 3.63072C16.3532 3.11792 16.908 2.61038 17.4776 2.11481C17.8846 1.76388 18.3066 1.43087 18.7438 1.11685C18.6507 0.821579 18.504 0.89277 18.3027 1.32935C17.3394 2.31094 16.2309 3.14815 15.2459 4.10863C15.1049 4.24524 15.3133 4.43897 15.4591 4.31664C16.56 3.40128 17.5508 2.36921 18.7033 1.51171C17.6332 2.30796 16.6011 3.40476 15.6737 4.36504C15.5391 4.50456 15.7435 4.70061 15.8882 4.57313C16.373 4.14676 16.842 3.70411 17.3131 3.26312C17.5466 3.04568 17.7873 2.83401 18.0344 2.63139C18.8935 2.02847 19.0292 1.91742 18.4414 2.29993C17.5258 3.35467 16.3867 4.21364 15.4193 5.22326C15.2842 5.3646 15.4864 5.55297 15.6337 5.4321C16.1164 5.03784 16.5697 4.61894 17.0222 4.19191C17.2476 3.97959 17.4788 3.77268 17.7159 3.57119C18.5646 2.95476 18.683 2.85847 18.0697 3.2836C17.1836 4.31504 16.1152 5.19353 15.1607 6.16631L15.1617 6.5745C15.1773 6.56848 15.1928 6.55985 15.2077 6.54819C15.674 6.1847 16.0889 5.79214 16.4991 5.36975C16.9424 4.91278 17.7118 4.38793 18.0095 3.83387C17.3396 5.08332 16.0334 5.95803 15.163 7.08578L15.1639 7.44489C15.1974 7.45183 15.233 7.44763 15.2653 7.42754C16.4819 6.67762 17.2609 5.46612 18.4077 4.62796C17.255 5.47053 16.0891 6.71807 15.3167 7.91282C15.2182 8.06535 15.4301 8.1902 15.555 8.09163C16.0886 7.66954 16.5418 7.18593 16.9978 6.68554C17.418 6.22355 18.5407 5.38339 18.6952 5.10609C17.9054 6.51858 16.3799 7.47888 15.4045 8.7702C15.2982 8.91106 15.522 9.05734 15.6425 8.94901C16.2322 8.41424 16.7751 7.84058 17.3291 7.27203C17.5483 7.04944 17.7758 6.83598 18.0114 6.63009C19.4951 5.28793 18.2677 6.46411 18.0195 6.73708C17.0849 7.76415 16.0295 8.65773 15.1697 9.7497L15.1706 10.0951C15.2156 10.1029 15.2639 10.0948 15.302 10.0641C16.5659 9.04642 17.5314 7.719 18.9127 6.83935C18.3593 7.19212 17.758 8.07492 17.2493 8.59663C16.684 9.17505 16.1239 9.75021 15.6033 10.3687C15.4792 10.5167 15.6672 10.7006 15.8177 10.5776C16.4904 10.027 17.1264 9.44175 17.7622 8.85074C18.0165 8.61195 18.274 8.37689 18.5342 8.14537C18.9988 7.72557 18.9736 7.4481 18.4649 7.99427C17.4403 9.09431 16.2864 10.026 15.4108 11.2568C15.3124 11.3955 15.5338 11.5585 15.6488 11.4356C16.1381 10.9094 16.6421 10.4035 17.1649 9.90875C17.4315 9.66232 17.7029 9.42128 17.9798 9.1866C18.5291 8.77071 18.5349 8.73124 17.9967 9.06744C17.1686 10.0866 16.2146 11.0075 15.3511 11.9991C15.2255 12.1422 15.4345 12.351 15.5654 12.2072C16.115 11.6042 16.6579 10.9966 17.2309 10.4138C17.4596 10.1849 17.6984 9.96703 17.9476 9.76009C19.0494 8.79937 18.6829 9.06062 18.3044 9.5061C17.3041 10.6846 16.1731 11.7348 15.244 12.9731C15.1529 13.0938 15.3293 13.2527 15.4515 13.1749C15.9516 12.856 16.3768 12.4922 16.7979 12.0745C17.1051 11.7691 17.3947 11.4441 17.6952 11.1322C17.8957 10.926 19.0381 9.6614 18.3377 10.5451C17.4126 11.7126 16.2336 12.5985 15.5028 13.9162C15.4215 14.0633 15.6178 14.2155 15.7413 14.0947C16.2682 13.5794 16.7403 13.0239 17.2141 12.4614C17.4102 12.2271 17.612 11.998 17.8175 11.7718C17.9239 11.6616 18.029 11.5502 18.1346 11.4398C18.6143 11.0346 18.5743 11.0147 18.0146 11.3784C17.1109 12.4959 16.0739 13.4489 15.3338 14.6881C15.2466 14.8343 15.4495 14.9847 15.5722 14.8668C16.0705 14.3879 16.5488 13.8921 17.0246 13.391C17.2645 13.1366 17.5078 12.8858 17.7546 12.638C17.8795 12.5171 18.0037 12.3955 18.1286 12.2744C18.5428 12.1298 18.6331 11.9762 18.3995 11.8124C17.5127 13.1218 16.3047 14.2087 15.3357 15.4602C15.2251 15.6025 15.4521 15.7389 15.5741 15.6382C16.1189 15.1903 16.6186 14.7109 17.1113 14.2089C17.3574 13.9538 17.6058 13.7001 17.8563 13.45C18.2517 13.3037 18.3449 13.1041 18.1367 12.8507C17.2836 13.8316 16.3216 14.6634 15.6793 15.8023C15.6467 15.8601 15.6574 15.9204 15.6909 15.9634L15.9602 15.9627C16.9673 15.3942 17.7 14.547 18.5238 13.7541C19.3539 12.9547 18.1294 14.17 17.8731 14.4803C17.4714 14.9671 17.0778 15.446 16.715 15.9609L17.2317 15.9597C17.7237 14.9702 18.6146 14.26 19.3801 13.4471C19.4116 13.4138 19.4461 13.3994 19.4793 13.3986L19.4803 13.8008C18.859 14.5953 18.2271 15.4473 17.3478 15.9594L17.5303 15.959C17.7064 15.6829 18.0486 15.2477 18.1016 15.1832C18.4662 14.7392 18.9138 14.3518 19.3213 13.9457C19.2611 13.8812 19.2003 13.816 19.14 13.7511C18.9636 13.9758 18.7826 14.1987 18.5987 14.4183C18.2147 14.8838 17.5684 15.2678 17.2353 15.7409C17.8539 14.8628 18.6147 14.1093 19.1881 13.198C19.2861 13.0437 19.0763 12.9237 18.9506 13.0192C17.9344 13.7946 17.1655 14.8199 16.1063 15.5468C16.4805 15.289 16.9845 14.5018 17.3549 14.1061C17.7879 13.6408 18.2335 13.1938 18.6493 12.7146C18.7749 12.5702 18.5811 12.3762 18.4357 12.5059C17.9001 12.9838 17.3969 13.4861 16.898 14.0002C16.6541 14.2524 16.4058 14.4995 16.1529 14.7427C15.2173 15.6577 16.3319 14.7065 16.4725 14.5432C17.3175 13.5645 18.2013 12.6398 18.927 11.5689C19.0275 11.4205 18.813 11.288 18.6894 11.3902C18.1541 11.8353 17.6593 12.3077 17.1729 12.803C16.9308 13.0552 16.6897 13.3082 16.4491 13.5633C16.3286 13.6882 16.2084 13.8134 16.0879 13.939C15.6885 14.0977 15.6058 14.2608 15.8402 14.4271C16.6376 13.0918 17.9135 12.0495 18.8392 10.7985C18.9461 10.654 18.7232 10.516 18.6019 10.6198C18.0114 11.1186 17.501 11.6685 16.9997 12.2526C16.8063 12.4825 16.6121 12.713 16.4168 12.9417C16.3197 13.053 16.2225 13.1636 16.1251 13.2737C15.7697 13.4452 15.7179 13.583 15.9735 13.6883C16.7428 12.2993 18.1871 11.3311 19.0947 10.0247C19.1815 9.89982 19.0123 9.74758 18.8881 9.82318C17.735 10.5177 16.9486 11.5672 15.9618 12.4531C17.1111 11.4207 18.1965 10.1495 19.1542 8.94049C19.2527 8.81534 19.1292 8.61584 18.9705 8.70781C17.6657 9.46966 16.6806 10.5298 15.6816 11.6363C15.8604 11.9657 16.0349 11.9156 16.2062 11.4853C16.5389 11.1163 16.8821 10.7565 17.2202 10.3922C17.7892 9.77907 18.3291 9.14701 18.8334 8.48177C18.9442 8.33572 18.7181 8.20596 18.5961 8.30296C18.0304 8.7518 17.4849 9.21695 16.9508 9.70077C16.6846 9.94759 16.4241 10.1992 16.1692 10.4554C15.6388 10.9041 15.6671 10.9643 16.2528 10.6382C17.1715 9.4982 18.3705 8.59832 19.3214 7.48158C19.4471 7.33449 19.2569 7.15044 19.1071 7.27286C18.4345 7.82376 17.7985 8.40826 17.1626 8.99972C16.9083 9.23773 16.6511 9.47282 16.3907 9.7058C15.9267 10.1236 15.9523 10.4029 16.4518 9.8491C17.4314 8.76314 18.5124 7.80277 19.343 6.59324C19.4327 6.46228 19.2614 6.32687 19.1356 6.39142C17.6449 7.15515 16.6479 8.4907 15.4252 9.58389C16.7315 8.41489 18.0903 7.24167 19.1694 5.82194C19.2647 5.69795 19.0849 5.55116 18.9626 5.62045C18.3975 5.9414 17.9313 6.29977 17.4515 6.73486C17.1008 7.05159 16.7807 7.40663 16.4538 7.74669C16.3431 7.85955 16.2317 7.97381 16.1204 8.08803C15.637 8.47566 15.6649 8.52964 16.204 8.2492C17.1903 7.0952 18.4169 6.21965 19.167 4.87845C19.2439 4.74205 19.0938 4.61502 18.9603 4.67666C17.6909 5.26345 16.8825 6.42073 15.9268 7.38457C15.1733 8.14295 16.2868 7.11127 16.378 7.00701C16.6741 6.66912 17.0149 6.36516 17.3403 6.05545C17.8919 5.5292 18.3943 4.99068 18.823 4.3643C18.9098 4.2382 18.7413 4.08951 18.6156 4.1629C17.476 4.82603 16.7108 5.8717 15.7442 6.73823C16.7558 5.83221 17.8245 4.81419 18.4795 3.59373C18.545 3.4709 18.4044 3.30438 18.2717 3.39236C17.7651 3.7296 17.3226 4.1057 16.8884 4.53124C16.5772 4.83622 16.284 5.16164 15.9802 5.47429C15.8764 5.57646 15.7722 5.67756 15.6675 5.77899C15.2684 5.94498 15.2259 6.08462 15.5397 6.20001C16.6564 5.03068 17.9046 4.01121 18.9046 2.73521C19.0002 2.6133 18.8182 2.46137 18.6979 2.53298C18.131 2.86852 17.6445 3.23822 17.1508 3.66829C16.9211 3.87731 16.6943 4.08868 16.47 4.30213C16.3565 4.40796 16.2425 4.51338 16.1295 4.61859C15.7309 4.76481 15.6701 4.92728 15.9463 5.10586C17.0293 3.97391 18.2799 3.03212 19.2449 1.79088C19.3404 1.66793 19.1592 1.51716 19.0382 1.58906C18.4624 1.92829 17.9616 2.30169 17.455 2.73247C17.2157 2.94601 16.9794 3.16316 16.7466 3.38355C16.6298 3.49492 16.5126 3.60518 16.3949 3.71501C15.989 3.87081 15.9264 4.04668 16.2074 4.24248C17.2035 3.2111 18.3584 2.39681 19.1577 1.19105C19.2393 1.06882 19.076 0.90492 18.951 0.988492C17.7331 1.80305 16.7161 2.83327 15.6229 3.79355C15.8268 4.07281 16.02 4.01287 16.2035 3.61179C16.5834 3.2609 16.9809 2.92649 17.3715 2.58622C18.0225 2.01966 18.6416 1.43084 19.2189 0.791317C19.3274 0.671941 19.1836 0.459349 19.0357 0.560243C18.4157 0.980633 17.8365 1.42653 17.2633 1.90606C16.9783 2.15068 16.6978 2.39943 16.4208 2.65172C16.0847 2.95348 15.7745 3.62995 16.4418 2.99494C17.4609 2.02752 18.5715 1.21037 19.4123 0.0746437C19.4304 0.0500899 19.438 0.0245838 19.4377 -2.30693e-09L18.9921 0.00107144C18.0813 0.565096 17.301 1.26171 16.4872 1.95687C15.0276 3.20366 16.1853 2.34619 16.6257 1.89692C17.2359 1.27463 17.8533 0.659887 18.4463 0.0218175C18.4523 0.0153888 18.4576 0.00893043 18.4624 0.00238272L18.012 0.00348393C17.2506 0.806943 16.4018 1.51725 15.6342 2.32089C15.2423 2.14398 15.4224 1.9349 16.1745 1.69207C16.4058 1.48219 16.6312 1.26653 16.8502 1.0451C17.2198 0.67971 17.5898 0.329618 17.9905 0.00351287L17.6403 0.00437597L17.6403 0.00439553ZM18.1751 15.9574C18.5196 15.6643 18.8376 15.3411 19.1695 15.0107C19.227 14.9534 19.3696 14.7725 19.4824 14.631L19.4817 14.3525C18.9809 14.7575 18.5418 15.223 18.072 15.6708C17.9478 15.7893 17.8452 15.8838 17.7607 15.9584L18.1751 15.9574L18.1751 15.9574ZM19.4825 14.6897C19.452 14.7346 19.4165 14.7866 19.3753 14.8466C19.1126 15.2291 18.8176 15.5911 18.5277 15.9565L18.9015 15.9556C18.9395 15.906 18.9855 15.8466 19.0411 15.7758C19.1925 15.5831 19.3405 15.3898 19.4838 15.194L19.4825 14.6897L19.4825 14.6897ZM19.3281 15.9546C19.3812 15.9106 19.4335 15.8655 19.4854 15.8196L19.4857 15.9542L19.3281 15.9546ZM19.4848 15.5874C19.4384 15.6458 19.3929 15.7048 19.3482 15.7646C19.2945 15.8328 19.2521 15.8949 19.2171 15.9549L18.9751 15.9554C19.1396 15.7823 19.3578 15.545 19.4843 15.4176L19.4848 15.5874H19.4848ZM16.7043 0.00669261C16.5726 0.130384 16.4411 0.253868 16.3092 0.378305C15.8396 0.558128 15.7712 0.745273 16.1053 0.941703C16.44 0.625837 16.7796 0.331369 17.0999 0.00574123L16.7043 0.00669361L16.7043 0.00669261Z" fill="#EB891B"/>
<path fill-rule="evenodd" clip-rule="evenodd" d="M1.32626 8.07228C0.963814 8.36253 0.611879 8.663 0.264648 8.97048L0.264958 9.09509C0.527946 8.88712 0.783578 8.66974 1.03174 8.44277C1.20341 8.29287 1.37488 8.14703 1.54884 8.00492L1.63449 8.00472C1.14814 8.45265 0.71523 8.95563 0.265805 9.45446L0.266425 9.71114L0.269243 9.70858C0.586909 9.43628 0.91193 9.16469 1.19907 8.85638C1.31282 8.73437 1.87147 8.16821 2.028 8.00369L2.01983 8.00372C1.97834 8.04351 1.90881 8.11129 1.80351 8.21477C1.50205 8.50981 1.21559 8.81443 0.935213 9.13283C0.776902 9.5174 0.638122 9.55311 0.517492 9.24002C0.694095 9.08365 2.19713 7.79645 1.2305 8.64947C0.91224 8.93039 0.598324 9.19736 0.265779 9.44578L0.265553 9.34915C0.654101 8.99137 1.05502 8.64985 1.46804 8.32435C1.60963 8.21063 1.46992 7.95721 1.32627 8.07228L1.32626 8.07228ZM0.266875 9.90749C0.309461 9.95887 0.378626 9.98479 0.439448 9.93769C1.03481 9.47984 2.08319 8.7436 2.42165 8.14391C1.90554 9.05994 1.02647 9.7835 0.268285 10.4941L0.269187 10.8761C0.28373 10.8696 0.298019 10.8601 0.311576 10.847C0.93859 10.2469 1.50462 9.58268 2.11351 8.96234C2.36796 8.70469 3.0014 8.39254 3.11684 8.12003C2.85008 8.7492 2.32064 9.25964 1.8574 9.73617C1.54886 10.0533 1.20941 10.3403 0.877034 10.6296C0.675799 10.8015 0.473153 10.9716 0.269803 11.1411L0.269662 11.0756C1.22252 10.0609 2.11435 8.97949 3.39147 8.40563C3.51427 8.35009 3.65713 8.4659 3.58385 8.60518C2.83756 10.0156 1.62254 11.074 0.473069 12.1188C0.404778 12.1813 0.320986 12.1614 0.272115 12.1094L0.271636 11.9153L0.274398 11.9124C1.34455 10.8183 2.3097 9.6351 3.55156 8.74382C3.67015 8.65872 3.81313 8.82256 3.74383 8.94408C3.35001 9.63531 2.89173 10.2501 2.33893 10.8143C2.01419 11.1448 1.68291 11.468 1.35479 11.7955C1.28796 11.8611 0.138298 12.7744 0.79082 12.1024C1.73748 11.127 2.46499 9.9685 3.63188 9.2527C3.7515 9.18016 3.89986 9.32554 3.82446 9.45288C3.01634 10.809 1.87966 11.8223 0.844908 12.9802C0.551622 12.716 0.724223 12.4978 1.36344 12.3247C1.46843 12.2241 1.57302 12.1231 1.67784 12.0214C1.98736 11.7018 2.28811 11.375 2.58977 11.0469C3.08851 10.5048 3.59152 9.98988 4.16045 9.52841C4.19032 9.50432 4.22257 9.49285 4.25337 9.49147L4.2545 9.963C3.39536 11.6136 1.83725 12.5786 0.647836 13.9511C0.407537 13.7906 0.454971 13.6453 0.790139 13.516C0.98213 13.3292 1.16885 13.136 1.3496 12.9373C1.71729 12.5282 2.07215 12.1056 2.44867 11.7053C3.00853 11.112 3.5779 10.5896 4.25495 10.1573L4.25661 10.8543C3.8795 11.5138 3.40268 12.0937 2.86816 12.6377C2.46778 13.0435 2.05804 13.4362 1.65356 13.8387C1.45808 14.0297 1.2651 14.2237 1.07578 14.4218C0.94315 14.7582 0.794618 14.8029 0.628949 14.5576C1.82258 13.3864 2.77096 11.8201 4.25706 11.0463L4.25813 11.4959C4.15745 11.3334 4.02262 11.3718 3.8543 11.6104C3.55033 11.84 3.26548 12.0931 3.00021 12.3696C2.71614 12.6715 2.43855 12.9782 2.1677 13.2944C1.65505 13.891 1.14827 14.4832 0.559051 15C0.422527 15.1209 0.238398 14.9357 0.360605 14.7936C1.55951 13.4008 3.35617 12.2326 4.13896 10.5028C4.00016 10.8107 3.2259 11.2983 2.93129 11.6099C2.64745 11.912 2.36944 12.2189 2.09492 12.5293C1.55889 13.1372 1.02048 13.7248 0.398764 14.2386C0.359221 14.271 0.315958 14.2798 0.277233 14.2725L0.276472 13.9459C1.45379 12.6288 3.22511 11.5626 3.97899 9.90804C3.69559 10.5296 2.73096 11.344 2.1837 11.9104C1.66418 12.4474 1.14517 12.9212 0.52723 13.3282C0.388535 13.4197 0.250235 13.2178 0.356631 13.0991C0.964115 12.4196 1.62292 11.792 2.22835 11.1106C2.53578 10.7655 4.23163 8.77057 2.84578 10.2038C2.00651 11.0722 1.3357 12.0945 0.36686 12.8201C0.335237 12.8437 0.303078 12.8498 0.273851 12.8437L0.273034 12.5075C0.979219 11.7413 1.77582 11.0623 2.45444 10.2697C2.83575 9.82368 4.08685 8.4465 2.67039 9.81932C2.34855 10.131 2.03427 10.448 1.7305 10.7791C1.52529 11.0027 1.32079 11.2259 1.11524 11.4482C0.972877 11.8171 0.790327 11.8833 0.566402 11.6474C0.887167 11.3532 1.21041 11.0616 1.51833 10.7519C1.99997 10.2694 2.71038 9.08999 3.17351 8.81957C2.20219 9.38659 1.48434 10.1993 0.718035 11.0203C0.58368 11.3552 0.434445 11.4137 0.269932 11.1971L0.270693 11.5136C1.47642 10.5108 2.81089 9.49072 3.4715 8L2.86289 8.00156C1.92807 8.63546 1.21275 9.5231 0.417366 10.3494C0.572464 10.6609 0.740217 10.6336 0.919272 10.2675C1.23697 9.96519 1.54477 9.65544 1.84795 9.33811C2.23311 8.93344 2.54703 8.48762 2.82608 8.00168L2.25642 8.00312C1.83563 8.61864 1.3428 9.16418 0.777196 9.64986C0.818148 9.28884 0.983111 9.0136 1.27194 8.82299C1.47588 8.61276 1.68924 8.41215 1.91226 8.22247C2.00848 8.13593 2.10206 8.06584 2.19723 8.0033L2.12968 8.00348C1.61695 8.65794 1.00352 9.18562 0.388026 9.7451C0.349048 9.78049 0.305644 9.78976 0.26658 9.78181L0.266862 9.90751L0.266875 9.90749ZM4.25862 11.6978C3.39215 13.3289 1.69878 14.4453 0.522292 15.8115C0.467755 15.8743 0.475985 15.9489 0.51347 16L0.73855 15.9994C1.77148 14.9728 2.62817 13.7766 3.66191 12.7512C5.14201 11.2826 3.32556 13.3962 2.99487 13.8067C2.39108 14.5543 1.74515 15.2649 1.12524 15.9984L1.52881 15.9974C2.42732 14.9972 3.21899 13.8962 4.26184 13.051L4.26102 12.7046C3.10558 13.5676 2.25999 14.7597 1.29195 15.8428C1.36991 15.8829 1.44736 15.9225 1.52523 15.9633C1.74696 15.7022 1.96975 15.4436 2.19416 15.1855C2.52975 14.7966 2.86351 14.4067 3.19332 14.0122C3.57378 13.5575 3.92805 13.084 4.26074 12.5929L4.25978 12.1864C3.4282 13.4292 2.22984 14.3713 1.21241 15.4675C1.04178 15.8286 0.913121 15.843 0.827442 15.5089C1.02927 15.2994 1.22476 15.0841 1.41396 14.8631C1.79755 14.4137 2.16654 13.95 2.55756 13.5082C3.0887 12.9067 3.63119 12.3644 4.25908 11.8915L4.25863 11.6977L4.25862 11.6978ZM4.26183 13.052C3.39316 13.769 2.43436 14.9951 1.64892 15.9971L1.68455 15.997C1.65044 15.8979 1.74548 15.7872 1.96954 15.6652C2.06371 15.5516 2.15886 15.4394 2.25361 15.3265C2.44143 15.0994 2.63373 14.8754 2.8299 14.6554C3.23347 14.2205 3.6451 13.8361 4.11888 13.4898C4.16626 13.4552 4.22085 13.4633 4.26287 13.4932L4.26352 13.7626C3.99095 14.1804 3.71069 14.5897 3.41255 14.9897C3.16301 15.3237 2.91459 15.6584 2.66691 15.9944L2.82262 15.994C3.07761 15.7089 3.32188 15.4134 3.57272 15.1206C3.83858 14.811 4.62357 13.7296 3.40996 15.3273C3.23885 15.5518 3.06323 15.7723 2.88869 15.9938L2.91065 15.9938C2.96783 15.9367 3.0649 15.8798 3.20196 15.823C3.3141 15.7029 3.42647 15.5835 3.53901 15.4636C3.77737 15.2102 4.01682 14.9648 4.2658 14.7266L4.26676 15.1191C3.98441 15.4087 3.70826 15.7036 3.42633 15.9925L3.23595 15.9929C3.58927 15.5346 3.94357 15.087 4.26552 14.6039L4.26431 14.0944C3.62106 14.5938 3.1229 15.2164 2.59059 15.8386C2.49313 15.8988 2.42078 15.951 2.37343 15.9952L2.3192 15.9953C2.51325 15.7258 2.7102 15.459 2.90924 15.1924C2.67906 15.5013 4.41935 13.4713 3.63417 14.24C3.07138 14.7907 2.57089 15.3984 2.05776 15.996L2.01357 15.9961C2.7405 15.103 3.55892 14.3117 4.26268 13.405L4.26183 13.052H4.26183ZM4.26676 15.1219C4.00972 15.3948 3.76398 15.6892 3.5298 15.9922L3.67187 15.9918C4.02043 15.6636 4.00287 15.6724 4.26761 15.4799L4.26676 15.1219L4.26676 15.1219ZM4.00256 15.991C4.04994 15.926 4.09622 15.8593 4.14126 15.7903C4.09743 15.8574 4.05355 15.9242 4.00981 15.9909L4.26882 15.9902L4.2678 15.5622C4.16417 15.7064 4.05239 15.847 3.93306 15.9875L3.92987 15.9911L4.00256 15.991L4.00256 15.991Z" fill="#00A13A"/>
</svg>
