<svg width="15" height="15" viewBox="0 0 15 15" fill="none" xmlns="http://www.w3.org/2000/svg">
<path fill-rule="evenodd" clip-rule="evenodd" d="M13.1512 13.8583C13.3464 14.0536 13.663 14.0536 13.8583 13.8583C14.0536 13.663 14.0536 13.3464 13.8583 13.1512L7.70948 7.00237L13.8583 0.853553C14.0536 0.658291 14.0536 0.341709 13.8583 0.146447C13.663 -0.0488155 13.3464 -0.0488155 13.1512 0.146447L7.00237 6.29526L0.853553 0.146447C0.658291 -0.0488155 0.341708 -0.0488155 0.146446 0.146447C-0.0488155 0.341709 -0.0488155 0.658291 0.146446 0.853553L6.29526 7.00237L0.146447 13.1512C-0.0488153 13.3464 -0.0488153 13.663 0.146447 13.8583C0.341709 14.0536 0.658291 14.0536 0.853554 13.8583L7.00237 7.70948L13.1512 13.8583Z" fill="#666666"/>
</svg>
