<svg width="19" height="20" viewBox="0 0 19 20" fill="none" xmlns="http://www.w3.org/2000/svg">
<path d="M15.3306 19.4952H15.1745L2.84339 19.4952L2.84234 19.4952C2.48155 19.496 2.12568 19.4145 1.80248 19.2573C1.47931 19.1002 1.19778 18.8717 0.979458 18.5903C0.761157 18.3088 0.611871 17.9818 0.542777 17.6349C0.473686 17.288 0.486556 16.93 0.580427 16.5887L0.580576 16.5881C1.06832 14.8069 1.72226 13.4963 2.9267 12.6103C4.13991 11.7178 5.99486 11.1952 9.02195 11.1952C11.9711 11.1952 13.8098 11.7335 15.0292 12.6313C16.2424 13.5245 16.92 14.8303 17.4234 16.5491L17.4239 16.5508C17.5257 16.894 17.545 17.2557 17.4804 17.6074C17.4157 17.9591 17.2688 18.2915 17.0508 18.5781C16.8329 18.8647 16.5498 19.0976 16.2237 19.2578C15.9447 19.395 15.641 19.4755 15.3306 19.4952ZM9.02345 8.80844C8.19094 8.80217 7.37941 8.55264 6.69112 8.09196C6.00258 7.63111 5.46848 6.97984 5.15522 6.22093C4.84199 5.46209 4.76327 4.62897 4.92876 3.82634C5.09425 3.02367 5.49676 2.28652 6.08649 1.70817C6.67629 1.12976 7.42698 0.736132 8.24421 0.57784C9.06147 0.419543 9.90779 0.503874 10.6763 0.819945C11.4447 1.13599 12.1002 1.66931 12.5608 2.35172C13.0212 3.03373 13.2667 3.83442 13.2669 4.65297C13.2616 5.75675 12.8134 6.81467 12.0185 7.59422C11.2234 8.37398 10.1464 8.81133 9.02345 8.80844Z" stroke="#333333"/>
</svg>
