<svg width="30" height="25" viewBox="0 0 30 25" fill="none" xmlns="http://www.w3.org/2000/svg">
<path d="M24.0254 16.8321V13.7602M2.00111 14.7842H14.0144C14.5673 14.7842 15.0155 14.3257 15.0155 13.7602V9.6643C15.0155 9.09877 14.5673 8.64032 14.0144 8.64032H2.00111C1.44821 8.64032 1 9.09877 1 9.6643V13.7602C1 14.3257 1.44821 14.7842 2.00111 14.7842ZM6.00554 22.976H18.0188C18.5717 22.976 19.02 22.5176 19.02 21.952V17.8561C19.02 17.2906 18.5717 16.8321 18.0188 16.8321H6.00554C5.45265 16.8321 5.00444 17.2906 5.00444 17.8561V21.952C5.00444 22.5176 5.45265 22.976 6.00554 22.976ZM21.0552 13.7602H26.9956C28.433 13.7602 29.4022 12.2569 28.836 10.9055L24.9456 1.62061C24.5989 0.793128 23.452 0.793129 23.1052 1.62061L19.2149 10.9055C18.6486 12.2569 19.6178 13.7602 21.0552 13.7602ZM24.0254 24C22.9687 24 22.1569 23.0427 22.3064 21.9726L22.9015 17.7113C22.972 17.2069 23.3944 16.8321 23.8926 16.8321H24.1583C24.6565 16.8321 25.0789 17.2069 25.1493 17.7113L25.7445 21.9726C25.8939 23.0427 25.0822 24 24.0254 24Z" stroke="#666666"/>
</svg>
