<svg width="176" height="168" viewBox="0 0 176 168" fill="none" xmlns="http://www.w3.org/2000/svg">
<path d="M176 84C176 99.0167 175.165 110.825 173.486 119.43C170.743 133.193 165.56 143.751 157.943 151.106C150.47 158.303 139.657 163.154 125.486 165.654C116.651 167.219 104.149 168 88 168C71.8462 168 59.3494 167.219 50.5143 165.654C36.3428 163.149 25.4461 158.299 17.8286 151.106C10.356 143.751 5.25712 133.193 2.51427 119.43C0.835145 110.825 0 99.0167 0 84C0 68.8253 0.835145 56.94 2.51427 48.3352C5.25712 34.5728 10.4351 24.0909 18.0571 16.8939C25.6747 9.69682 36.4175 4.84616 50.2857 2.34637C59.2747 0.780621 71.8462 0 88 0C104.149 0 116.721 0.780621 125.714 2.34637C139.578 4.85067 150.321 9.70133 157.943 16.8939C165.56 24.0909 170.743 34.5683 173.486 48.3352C175.156 56.94 176 68.8208 176 84ZM122.971 84C122.971 75.3951 122.743 69.5292 122.286 66.4022C121.513 61.5289 119.719 56.8857 117.029 52.7933C113.675 47.7847 109.635 44.4231 104.914 42.7039C101.257 41.454 95.6176 40.8268 88 40.8268C80.5275 40.8268 74.8923 41.4585 71.0857 42.7039C66.2066 44.4186 62.1715 47.7892 58.9715 52.7933C55.0066 58.8939 53.0285 69.2946 53.0285 84C53.0285 98.5475 55.0066 108.953 58.9715 115.207C62.1715 120.215 66.2066 123.577 71.0857 125.296C74.8923 126.546 80.5363 127.173 88 127.173C95.6176 127.173 101.257 126.541 104.914 125.296C109.635 123.581 113.675 120.211 117.029 115.207C120.985 109.264 122.971 98.8588 122.971 84Z" fill="#FF000C"/>
</svg>
