<svg width="140" height="165" viewBox="0 0 140 165" fill="none" xmlns="http://www.w3.org/2000/svg">
<path d="M140 165H69.2007C55.805 165 45.2202 163.744 37.4551 161.229C28.3197 158.087 20.7084 152.584 14.6166 144.729C4.86636 132.159 0 112.123 0 84.6214C0 54.7628 4.63798 33.7071 13.9227 21.45C24.8896 7.14849 43.5425 0 69.877 0H137.483V41.0143H94.7754C84.1116 41.0143 76.8032 41.5582 72.846 42.6643C66.3019 44.2372 61.4268 48.0132 58.2294 53.9786C54.7246 60.4154 52.9722 70.3199 52.9722 83.6786C52.9722 96.8786 54.2678 105.994 56.8547 111.021C59.8983 116.837 65.0765 120.609 72.3849 122.336C76.7988 123.437 84.5639 123.986 95.6801 123.986H139.987V165H140Z" fill="#FF000C"/>
</svg>
